# Blender v2.80 (sub 75) OBJ File: ''
# www.blender.org
mtllib board.mtl
o Cube
v 1.500000 0.299712 -2.000000
v 1.500000 -0.299712 -2.000000
v 1.500000 0.299712 2.000000
v 1.500000 -0.299712 2.000000
v -1.500000 0.299712 -2.000000
v -1.500000 -0.299712 -2.000000
v -1.500000 0.299712 2.000000
v -1.500000 -0.299712 2.000000
v -1.500000 -0.299712 -1.490681
v 1.500000 0.299712 -1.490681
v -1.500000 0.299712 -1.490681
v 1.500000 -0.299712 -1.490681
v -1.500000 -0.299712 1.555372
v 1.500000 0.299712 1.555372
v -1.500000 0.299712 1.555373
v 1.500000 -0.299712 1.555373
v -0.999600 -0.299712 -2.000000
v -0.999600 -0.299712 2.000000
v -0.999600 0.299712 2.000000
v -0.999600 0.299712 -2.000000
v -0.999600 0.299712 -1.490681
v -0.999600 -0.299712 -1.490681
v -0.999600 0.299712 1.555373
v -0.999600 -0.299712 1.555372
v 1.015396 -0.299712 2.000000
v 1.015396 0.299712 -2.000000
v 1.015396 0.299712 -1.490681
v 1.015396 0.299712 1.555372
v 1.015396 -0.299712 -2.000000
v 1.015396 0.299712 2.000000
v 1.015396 -0.299712 -1.490681
v 1.015396 -0.299712 1.555373
v 1.500000 0.834157 -2.000000
v -1.500000 0.834157 -2.000000
v -1.500000 0.834157 2.000000
v 1.500000 0.834157 -1.490681
v -1.500000 0.834157 -1.490681
v -1.500000 0.834157 1.555373
v -0.999600 0.834157 2.000000
v -0.999600 0.834157 -2.000000
v -0.999600 0.834157 -1.490681
v -0.999600 0.834157 1.555373
v 1.015396 0.834157 -2.000000
v 1.015396 0.834157 -1.490681
v 1.500000 0.545531 2.000000
v 1.500000 0.545531 -1.490681
v 1.500000 0.545531 1.555372
v -0.999600 0.545531 2.000000
v -0.999600 0.545531 1.555373
v 1.015396 0.545531 -1.490681
v 1.015396 0.545531 1.555372
v 1.015396 0.545531 2.000000
v 1.500000 1.216499 2.000000
v 1.500000 1.216499 -1.490681
v 1.500000 1.216499 1.555372
v -0.999600 1.216499 2.000000
v -0.999600 1.216499 1.555373
v 1.015396 1.216499 -1.490681
v 1.015396 1.216499 1.555372
v 1.015396 1.216499 2.000000
vt 0.625000 0.458300
vt 0.375000 0.500000
vt 0.375000 0.458300
vt 0.625000 0.718168
vt 0.375000 0.750000
vt 0.375000 0.718168
vt 0.625000 0.972211
vt 0.584616 1.000000
vt 0.584616 0.972211
vt 0.375000 0.722211
vt 0.125000 0.750000
vt 0.125000 0.722211
vt 0.875000 0.709616
vt 0.625000 0.750000
vt 0.625000 0.709616
vt 0.415384 0.031832
vt 0.375000 0.031832
vt 0.375000 0.031832
vt 0.583300 0.222211
vt 0.583300 0.250000
vt 0.583300 0.250000
vt 0.375000 0.500000
vt 0.125000 0.531832
vt 0.125000 0.500000
vt 0.584616 0.781832
vt 0.584616 0.750000
vt 0.625000 0.527789
vt 0.375000 0.527789
vt 0.625000 0.500000
vt 0.625000 0.250000
vt 0.625000 0.290384
vt 0.625000 0.290384
vt 0.375000 0.531832
vt 0.625000 0.781832
vt 0.416700 0.781832
vt 0.375000 0.972211
vt 0.375000 0.781832
vt 0.415384 0.031832
vt 0.416700 0.750000
vt 0.583300 0.031832
vt 0.583300 0.031832
vt 0.625000 0.527789
vt 0.875000 0.500000
vt 0.625000 0.541700
vt 0.625000 0.500000
vt 0.416700 0.972211
vt 0.375000 1.000000
vt 0.375000 0.290384
vt 0.375000 0.250000
vt 0.625000 0.750000
vt 0.625000 0.750000
vt 0.583300 0.222211
vt 0.875000 0.541700
vt 0.416700 1.000000
vt 0.375000 0.000000
vt 0.415384 0.000000
vt 0.625000 0.222211
vt 0.625000 0.031832
vt 0.583300 0.000000
vt 0.625000 0.000000
vt 0.625000 0.250000
vt 0.583300 0.222211
vt 0.375000 0.531832
vt 0.625000 0.500000
vt 0.625000 0.718168
vt 0.875000 0.541700
vt 0.875000 0.709616
vt 0.875000 0.750000
vt 0.875000 0.750000
vt 0.625000 0.250000
vt 0.625000 0.290384
vt 0.375000 0.722211
vt 0.375000 0.750000
vt 0.375000 0.750000
vt 0.375000 0.531832
vt 0.375000 0.722211
vt 0.415384 0.222211
vt 0.415384 0.222211
vt 0.415384 0.031832
vt 0.625000 0.458300
vt 0.375000 0.750000
vt 0.415384 0.250000
vt 0.375000 0.222211
vt 0.415384 0.222211
vt 0.375000 0.031832
vt 0.415384 0.031832
vt 0.583300 0.222211
vt 0.583300 0.250000
vt 0.625000 0.458300
vt 0.625000 1.000000
vt 0.375000 0.031832
vt 0.375000 0.500000
vt 0.625000 0.458300
vt 0.875000 0.500000
vt 0.625000 0.250000
vt 0.375000 0.531832
vt 0.375000 0.250000
vt 0.583300 0.250000
vn 0.0000 0.0000 1.0000
vn -1.0000 0.0000 0.0000
vn 0.0000 -1.0000 0.0000
vn 1.0000 0.0000 0.0000
vn 0.0000 0.0000 -1.0000
vn 0.0000 1.0000 0.0000
usemtl Material
s off
f 19/1/1 8/2/1 18/3/1
f 11/4/2 6/5/2 9/6/2
f 16/7/3 25/8/3 32/9/3
f 14/10/4 4/11/4 16/12/4
f 26/13/5 2/14/5 29/15/5
f 27/16/5 46/17/5 10/18/5
f 23/19/4 39/20/4 19/21/4
f 1/22/4 12/23/4 2/24/4
f 2/14/3 31/25/3 29/26/3
f 15/27/2 9/6/2 13/28/2
f 7/29/2 13/28/2 8/2/2
f 3/30/1 52/31/1 30/32/1
f 10/33/4 16/12/4 12/23/4
f 12/34/3 32/9/3 31/25/3
f 22/35/3 13/36/3 9/37/3
f 10/18/1 44/38/1 27/16/1
f 17/39/3 9/37/3 6/5/3
f 27/16/1 41/40/1 21/41/1
f 7/29/2 38/42/2 15/27/2
f 5/43/5 17/44/5 6/45/5
f 24/46/3 8/47/3 13/36/3
f 30/32/1 18/3/1 25/48/1
f 3/30/1 25/48/1 4/49/1
f 31/25/3 24/46/3 22/35/3
f 23/19/6 27/16/6 21/41/6
f 29/26/3 22/35/3 17/39/3
f 11/4/2 34/50/2 5/51/2
f 19/21/2 49/52/2 23/19/2
f 20/53/5 29/15/5 17/44/5
f 32/9/3 18/54/3 24/46/3
f 44/38/6 33/55/6 43/56/6
f 38/57/6 41/40/6 37/58/6
f 37/58/6 40/59/6 34/60/6
f 35/61/6 42/62/6 38/57/6
f 41/40/6 43/56/6 40/59/6
f 1/22/4 36/63/4 10/33/4
f 21/41/4 42/62/4 23/19/4
f 19/1/1 35/64/1 7/29/1
f 15/27/2 37/65/2 11/4/2
f 5/43/5 40/66/5 20/53/5
f 20/53/5 43/67/5 26/13/5
f 26/13/5 33/68/5 1/69/5
f 45/70/1 60/71/1 52/31/1
f 47/72/4 53/73/4 45/74/4
f 46/75/4 55/76/4 47/72/4
f 23/19/5 51/77/5 28/78/5
f 28/78/2 50/79/2 27/16/2
f 10/33/4 47/72/4 14/10/4
f 30/32/1 48/80/1 19/1/1
f 14/10/4 45/74/4 3/81/4
f 60/82/6 55/83/6 59/84/6
f 59/84/6 54/85/6 58/86/6
f 57/87/6 60/82/6 59/84/6
f 48/88/2 57/87/2 49/52/2
f 50/79/5 54/85/5 46/17/5
f 51/77/2 58/86/2 50/79/2
f 49/52/5 59/84/5 51/77/5
f 52/31/1 56/89/1 48/80/1
f 19/1/1 7/29/1 8/2/1
f 11/4/2 5/51/2 6/5/2
f 16/7/3 4/90/3 25/8/3
f 14/10/4 3/81/4 4/11/4
f 26/13/5 1/69/5 2/14/5
f 27/16/5 50/79/5 46/17/5
f 23/19/4 42/62/4 39/20/4
f 1/22/4 10/33/4 12/23/4
f 2/14/3 12/34/3 31/25/3
f 15/27/2 11/4/2 9/6/2
f 7/29/2 15/27/2 13/28/2
f 3/30/1 45/70/1 52/31/1
f 10/33/4 14/10/4 16/12/4
f 12/34/3 16/7/3 32/9/3
f 22/35/3 24/46/3 13/36/3
f 10/18/1 36/91/1 44/38/1
f 17/39/3 22/35/3 9/37/3
f 27/16/1 44/38/1 41/40/1
f 7/29/2 35/64/2 38/42/2
f 5/43/5 20/53/5 17/44/5
f 24/46/3 18/54/3 8/47/3
f 30/32/1 19/1/1 18/3/1
f 3/30/1 30/32/1 25/48/1
f 31/25/3 32/9/3 24/46/3
f 23/19/6 28/78/6 27/16/6
f 29/26/3 31/25/3 22/35/3
f 11/4/2 37/65/2 34/50/2
f 19/21/2 48/88/2 49/52/2
f 20/53/5 26/13/5 29/15/5
f 32/9/3 25/8/3 18/54/3
f 44/38/6 36/91/6 33/55/6
f 38/57/6 42/62/6 41/40/6
f 37/58/6 41/40/6 40/59/6
f 35/61/6 39/20/6 42/62/6
f 41/40/6 44/38/6 43/56/6
f 1/22/4 33/92/4 36/63/4
f 21/41/4 41/40/4 42/62/4
f 19/1/1 39/93/1 35/64/1
f 15/27/2 38/42/2 37/65/2
f 5/43/5 34/94/5 40/66/5
f 20/53/5 40/66/5 43/67/5
f 26/13/5 43/67/5 33/68/5
f 45/70/1 53/95/1 60/71/1
f 47/72/4 55/76/4 53/73/4
f 46/75/4 54/96/4 55/76/4
f 23/19/5 49/52/5 51/77/5
f 28/78/2 51/77/2 50/79/2
f 10/33/4 46/75/4 47/72/4
f 30/32/1 52/31/1 48/80/1
f 14/10/4 47/72/4 45/74/4
f 60/82/6 53/97/6 55/83/6
f 59/84/6 55/83/6 54/85/6
f 57/87/6 56/98/6 60/82/6
f 48/88/2 56/98/2 57/87/2
f 50/79/5 58/86/5 54/85/5
f 51/77/2 59/84/2 58/86/2
f 49/52/5 57/87/5 59/84/5
f 52/31/1 60/71/1 56/89/1
